<svg width="512" height="512" viewBox="0 0 512 512" fill="none" xmlns="http://www.w3.org/2000/svg">
<g clip-path="url(#clip0_1_18)">
<path d="M458.667 85.3333H53.3333C23.9147 85.3333 0 109.269 0 138.667V426.667H512V138.667C512 109.269 488.085 85.3333 458.667 85.3333ZM21.3333 138.667C21.3333 121.024 35.6907 106.667 53.3333 106.667H245.333V405.333H21.3333V138.667ZM490.667 405.333H266.667V106.667H458.667C476.309 106.667 490.667 121.024 490.667 138.667V405.333Z" fill="#404040"/>
<path d="M394.667 170.667H373.333V192H298.667V213.333H425.899C423.723 231.509 415.445 268.629 384 293.909C370.069 282.709 360.683 269.163 354.368 256H331.563C338.219 272.725 348.736 290.773 365.291 305.941C348.245 314.539 326.485 320 298.688 320V341.333C335.424 341.333 363.136 332.821 384.021 320.021C404.907 332.821 432.597 341.333 469.355 341.333V320C441.557 320 419.776 314.517 402.752 305.941C436.203 275.285 444.949 232.896 447.232 213.333H469.376V192H394.709V170.667H394.667Z" fill="black"/>
<path d="M34.3636 215.307V197.636H127.205V215.307H91.2386V314H70.3295V215.307H34.3636ZM145.102 314V197.636H188.739C197.678 197.636 205.178 199.189 211.239 202.295C217.337 205.402 221.939 209.758 225.045 215.364C228.189 220.932 229.761 227.428 229.761 234.852C229.761 242.314 228.17 248.792 224.989 254.284C221.845 259.739 217.205 263.962 211.068 266.955C204.932 269.909 197.394 271.386 188.455 271.386H157.375V253.886H185.614C190.841 253.886 195.121 253.167 198.455 251.727C201.788 250.25 204.25 248.11 205.841 245.307C207.47 242.466 208.284 238.981 208.284 234.852C208.284 230.723 207.47 227.201 205.841 224.284C204.212 221.33 201.731 219.095 198.398 217.58C195.064 216.027 190.765 215.25 185.5 215.25H166.182V314H145.102ZM205.216 261.273L234.023 314H210.5L182.205 261.273H205.216Z" fill="#404040"/>
</g>
<defs>
<clipPath id="clip0_1_18">
<rect width="512" height="512" fill="white"/>
</clipPath>
</defs>
</svg>
