<svg width="300" height="300" viewBox="0 0 300 300" fill="none" xmlns="http://www.w3.org/2000/svg">
<path d="M144.762 162.419L173.316 134.337M173.316 134.337L220.271 88.1575C223.392 84.4132 223.766 74.8028 217.775 68.8119C211.784 62.8211 200.302 63.8195 197.182 67.5638L125.421 137.574C123.982 138.978 121.604 137.62 122.081 135.668L127.288 114.368C130.408 89.4056 101.078 91.9018 98.5819 106.879C95.2536 121.024 86.7249 155.657 79.2363 181.03C71.8302 206.123 76.0214 221.7 79.1329 226.539C79.203 226.648 79.2763 226.736 79.3681 226.828C83.2751 230.735 96.081 243.541 117.303 264.763C138.771 286.231 160.779 273.708 169.099 264.763L221.52 211.719C227.76 206.103 227.76 183.013 203.159 188.005M173.316 134.337C197.806 123.104 201.051 148.565 194.061 155.555L189.18 160.547M173.316 176.772L189.18 160.547M189.18 160.547C201.501 153.088 217.648 168.538 209.757 180.884C209.696 180.98 209.624 181.071 209.546 181.154L203.159 188.005M190.941 201.11L203.159 188.005" stroke="#404040" stroke-width="8"/>
<path d="M129.784 70.6841H111.063" stroke="#6601FF" stroke-width="8" stroke-linecap="round"/>
<path d="M135.534 50.8475L122.296 37.6095" stroke="#6601FF" stroke-width="8" stroke-linecap="round"/>
<path d="M155.994 42.6019L155.994 23.8804" stroke="#6601FF" stroke-width="8" stroke-linecap="round"/>
<path d="M175.964 50.8475L189.202 37.6095" stroke="#6601FF" stroke-width="8" stroke-linecap="round"/>
</svg>
